      <svg width="30" height="30" viewBox="0 0 30 30" fill="none" xmlns="http://www.w3.org/2000/svg">
                                                    <path fill-rule="evenodd" clip-rule="evenodd" d="M15 1.875C11.519 1.875 8.18064 3.25781 5.71922 5.71922C3.25781 8.18064 1.875 11.519 1.875 15C1.875 18.481 3.25781 21.8194 5.71922 24.2808C8.18064 26.7422 11.519 28.125 15 28.125C18.481 28.125 21.8194 26.7422 24.2808 24.2808C26.7422 21.8194 28.125 18.481 28.125 15C28.125 11.519 26.7422 8.18064 24.2808 5.71922C21.8194 3.25781 18.481 1.875 15 1.875ZM14.0625 8.4375V10.3125C12.5138 10.3125 11.25 11.5763 11.25 13.125C11.25 14.6737 12.5138 15.9375 14.0625 15.9375H15.9375C16.4513 15.9375 16.875 16.3612 16.875 16.875C16.875 17.3888 16.4513 17.8125 15.9375 17.8125H11.25V19.6875H14.0625V21.5625H15.9375V19.6875C17.4862 19.6875 18.75 18.4237 18.75 16.875C18.75 15.3263 17.4862 14.0625 15.9375 14.0625H14.0625C13.8143 14.061 13.5767 13.9618 13.4012 13.7863C13.2257 13.6108 13.1265 13.3732 13.125 13.125C13.125 12.6112 13.5487 12.1875 14.0625 12.1875H18.75V10.3125H15.9375V8.4375H14.0625Z" fill="#1F384C" />
                                                </svg>