   <svg width="40" height="40" viewBox="0 0 40 40" fill="none" xmlns="http://www.w3.org/2000/svg">
        <rect x="0.5" y="0.5" width="39" height="39" rx="19.5" fill="url(#paint0_linear_218_22165)" />
        <rect x="0.5" y="0.5" width="39" height="39" rx="19.5" stroke="url(#paint1_linear_218_22165)" />
        <path opacity="0.6" d="M21.666 23.3328C21.666 24.8078 21.0243 26.1411 19.9993 27.0495C19.116 27.8495 17.9493 28.3328 16.666 28.3328C13.9077 28.3328 11.666 26.0911 11.666 23.3328C11.666 21.0328 13.2327 19.0828 15.3493 18.5078C15.9243 19.9578 17.1577 21.0745 18.6827 21.4911C19.0993 21.6078 19.541 21.6661 19.9993 21.6661C20.4577 21.6661 20.8993 21.6078 21.316 21.4911C21.541 22.0578 21.666 22.6828 21.666 23.3328Z" fill="white" />
        <path d="M25 16.6641C25 17.3141 24.875 17.9391 24.65 18.5057C24.075 19.9557 22.8417 21.0724 21.3167 21.4891C20.9 21.6057 20.4583 21.6641 20 21.6641C19.5417 21.6641 19.1 21.6057 18.6833 21.4891C17.1583 21.0724 15.925 19.9557 15.35 18.5057C15.125 17.9391 15 17.3141 15 16.6641C15 13.9057 17.2417 11.6641 20 11.6641C22.7583 11.6641 25 13.9057 25 16.6641Z" fill="white" />
        <path opacity="0.4" d="M28.3333 23.3328C28.3333 26.0911 26.0917 28.3328 23.3333 28.3328C22.05 28.3328 20.8833 27.8495 20 27.0495C21.025 26.1411 21.6667 24.8078 21.6667 23.3328C21.6667 22.6828 21.5417 22.0578 21.3167 21.4911C22.8417 21.0745 24.075 19.9578 24.65 18.5078C26.7667 19.0828 28.3333 21.0328 28.3333 23.3328Z" fill="white" />
        <defs>
            <linearGradient id="paint0_linear_218_22165" x1="20" y1="0" x2="20" y2="40" gradientUnits="userSpaceOnUse">
                <stop />
                <stop offset="1" stop-color="#525252" />
            </linearGradient>
            <linearGradient id="paint1_linear_218_22165" x1="20" y1="0" x2="20" y2="40" gradientUnits="userSpaceOnUse">
                <stop stop-color="white" stop-opacity="0" />
                <stop offset="1" stop-color="white" stop-opacity="0.24" />
            </linearGradient>
        </defs>
    </svg>